<?xml version="1.0" encoding="UTF-8" standalone="no"?>
<svg width="71px" height="71px" viewBox="0 0 71 71" version="1.1" xmlns="http://www.w3.org/2000/svg" xmlns:xlink="http://www.w3.org/1999/xlink">
    <!-- Generator: Sketch 39.1 (31720) - http://www.bohemiancoding.com/sketch -->
    <title>24/7</title>
    <desc>Created with Sketch.</desc>
    <defs></defs>
    <g id="Symbols" stroke="none" stroke-width="1" fill="none" fill-rule="evenodd">
        <g id="capabilities" transform="translate(-111.000000, -1.000000)" fill="#5CD2D0">
            <g transform="translate(0.767995, 0.986900)" id="24/7">
                <g transform="translate(109.934563, 0.000000)">
                    <path d="M44.3192728,9.64353624 C45.1915802,8.65134483 45.7308593,7.36948996 45.7308593,5.96631499 C45.7308593,2.85055182 43.1811103,0.331043959 40.061807,0.331043959 C36.9273661,0.331043959 34.3927548,2.86559927 34.3927548,5.96631499 C34.3927548,7.38453741 34.9320338,8.65134483 35.8043412,9.64353624 C27.101135,10.8407492 19.2986194,15.7048383 14.3911805,23.1702557 L16.2909563,24.3966231 C21.3497718,16.6970297 29.7360333,11.9834151 38.9236445,11.6269786 L38.9236445,14.9740964 L41.1961851,14.9740964 L41.1961851,11.6269786 C55.9270168,12.207246 67.7902087,24.0110322 68.3749007,38.6437394 L65.0077183,38.6437394 L65.0077183,40.9027383 L68.3749007,40.9027383 C67.7902087,55.5457907 55.9166096,67.3392317 41.1961851,67.9194991 L41.1961851,64.5723814 L38.9236445,64.5723814 L38.9236445,67.9194991 C24.1994356,67.3392317 12.3362437,55.5457907 11.7524978,40.9027383 L23.1719672,40.9027383 L11.7231686,26.8220844 L0.277208328,40.9027383 L9.47995717,40.9027383 C10.0741102,57.1586895 23.5598696,70.2038905 40.0655914,70.2038905 C56.9469164,70.2038905 70.6805549,56.5530295 70.6805549,39.7713579 C70.6805549,24.4370632 59.1901278,11.7116205 44.3192728,9.64353624 L44.3192728,9.64353624 Z M36.6690798,5.96631499 C36.6690798,4.10701412 38.1913604,2.59004279 40.0655914,2.59004279 C41.935092,2.59004279 43.462103,4.10325226 43.462103,5.96631499 C43.462103,7.8246754 41.9388764,9.34258719 40.0655914,9.34258719 C38.1951448,9.33882533 36.6690798,7.8246754 36.6690798,5.96631499 L36.6690798,5.96631499 Z M11.7231686,30.4184256 L18.4159048,38.655025 L5.02948626,38.655025 L11.7231686,30.4184256 Z" id="Fill-1"></path>
                    <path d="M31.9716759,55.9727622 L38.2916474,45.0906325 C38.8602556,45.281547 39.4411631,45.406629 40.079783,45.406629 C43.2142239,45.406629 45.7488352,42.8720737 45.7488352,39.7713579 C45.7488352,37.0458881 43.7941854,34.7718418 41.2179455,34.2461214 L41.2179455,18.3099285 L38.9454049,18.3099285 L38.9454049,34.2611689 C36.3663267,34.7821869 34.4145152,37.0562332 34.4145152,39.7864054 C34.4145152,41.4688987 35.1609908,42.9529537 36.3398358,43.9884066 L30.0198644,54.8705362 L31.9716759,55.9727622 Z M40.0655914,36.3988476 C41.935092,36.3988476 43.462103,37.9120571 43.462103,39.7751198 C43.462103,41.6344207 41.9388764,43.151392 40.0655914,43.151392 C38.1951448,43.151392 36.6690798,41.6372421 36.6690798,39.7751198 C36.6690798,37.9120571 38.1951448,36.3988476 40.0655914,36.3988476 L40.0655914,36.3988476 Z" id="Fill-2"></path>
                </g>
            </g>
        </g>
    </g>
</svg>