<?xml version="1.0" encoding="UTF-8" standalone="no"?>
<svg width="64px" height="57px" viewBox="0 0 64 57" version="1.1" xmlns="http://www.w3.org/2000/svg" xmlns:xlink="http://www.w3.org/1999/xlink">
    <!-- Generator: Sketch 39.1 (31720) - http://www.bohemiancoding.com/sketch -->
    <title>Cost</title>
    <desc>Created with Sketch.</desc>
    <defs></defs>
    <g id="Symbols" stroke="none" stroke-width="1" fill="none" fill-rule="evenodd">
        <g id="cost" transform="translate(-117.000000, 0.000000)" fill="#5CD2D0">
            <g transform="translate(0.000000, 0.888646)" id="Cost">
                <g transform="translate(117.929804, 0.000000)">
                    <path d="M61.1262182,0 L1.83753814,0 C0.824362307,0 0,0.827608977 0,1.8447751 L0,43.1112419 C0,43.9487623 0.573845019,44.6698228 1.35501469,44.8878755 L49.91341,55.592279 C51.6151998,55.9218359 53.0121731,54.2034322 53.0121731,52.4813118 L53.0121731,44.9461055 L61.1262182,44.9461055 C62.13816,44.9461055 62.9625223,44.1184965 62.9625223,43.1013304 L62.9625223,1.8447751 C62.9625223,0.827608977 62.13816,0 61.1262182,0 L61.1262182,0 Z M50.487255,52.4813118 C50.487255,52.9459126 50.2984415,53.1007796 50.0146042,53.0425496 L2.53108846,42.4050486 L2.53108846,3.40211714 L49.91341,8.76423039 C50.3416341,8.80883207 50.487255,9.03060154 50.487255,9.34033544 L50.487255,52.4813118 Z M60.4363701,42.4050486 L53.0171094,42.4050486 L53.0171094,25.3213657 L56.3725602,25.3213657 C56.8254658,25.3213657 57.1969225,24.9434903 57.1969225,24.4937567 C57.1969225,24.0390673 56.8205295,23.6661477 56.3725602,23.6661477 L53.0171094,23.6661477 L53.0171094,19.8043855 L56.3725602,19.8043855 C56.8254658,19.8043855 57.1969225,19.4265101 57.1969225,18.9767765 C57.1969225,18.5220871 56.8205295,18.1491675 56.3725602,18.1491675 L53.0171094,18.1491675 L53.0171094,14.2874053 L56.3725602,14.2874053 C56.8254658,14.2874053 57.1969225,13.9095299 57.1969225,13.4597963 C57.1969225,13.003868 56.8205295,12.6321873 56.3725602,12.6321873 L53.0171094,12.6321873 L53.0171094,9.34033544 C53.0171094,7.65166623 51.7213303,6.46104912 50.0047316,6.22936817 L17.4362501,2.5410569 L60.4215612,2.5410569 L60.4215612,42.4050486 L60.4363701,42.4050486 Z" id="Fill-1"></path>
                    <path d="M39.9762046,28.8100437 C39.9762046,24.8362445 45.9726353,24.8362445 45.9726353,28.8100437 C45.9726353,32.7838428 39.9762046,32.7838428 39.9762046,28.8100437 Z" id="Fill-2"></path>
                </g>
            </g>
        </g>
    </g>
</svg>