<?xml version="1.0" encoding="UTF-8" standalone="no"?>
<svg width="21px" height="20px" viewBox="0 0 21 20" version="1.1" xmlns="http://www.w3.org/2000/svg" xmlns:xlink="http://www.w3.org/1999/xlink">
    <!-- Generator: Sketch 39.1 (31720) - http://www.bohemiancoding.com/sketch -->
    <title>scroll</title>
    <desc>Created with Sketch.</desc>
    <defs></defs>
    <g id="Airvu" stroke="none" stroke-width="1" fill="none" fill-rule="evenodd">
        <g id="Mobile_home_old" transform="translate(-150.000000, -511.000000)" fill="#FFFFFF">
            <path d="M168.745487,517.553027 C168.29389,517.553027 167.873061,517.675812 167.52022,517.883152 C167.126686,517.28227 166.40562,516.878384 165.581828,516.878384 C165.130231,516.878384 164.709403,517.001169 164.356562,517.208509 C163.963027,516.607628 163.241961,516.203742 162.418169,516.203742 C162.094607,516.203742 161.787919,516.267158 161.50902,516.379599 L161.50902,513.043267 C161.50902,511.917064 160.497146,511 159.25451,511 C158.011875,511 157,511.917064 157,513.043267 L157,524.656112 C157,528.153908 160.140335,531 163.99975,531 C167.859662,531 170.999997,528.153908 170.999997,524.656112 L170.999997,519.596294 C171.001982,518.470091 169.990108,517.553027 168.745487,517.553027 L168.745487,517.553027 Z M169.598034,524.35278 C169.598034,527.146691 167.086647,529.421053 163.997788,529.421053 C160.910896,529.421053 158.4,527.14847 158.4,524.35278 L158.4,512.867541 C158.4,512.417384 158.803001,512.052632 159.300364,512.052632 C159.797236,512.052632 160.200728,512.417384 160.200728,512.867541 L160.200728,521.600237 C160.200728,521.933851 160.500031,522.203412 160.866664,522.203412 C161.235263,522.203412 161.533091,521.932517 161.533091,521.600237 L161.533091,518.014102 C161.533091,517.563945 161.936092,517.199193 162.433455,517.199193 C162.928852,517.199193 163.333819,517.563945 163.333819,518.014102 L163.333819,521.600237 C163.333819,521.933851 163.633121,522.203412 163.999754,522.203412 C164.368353,522.203412 164.666181,521.932517 164.666181,521.600237 L164.666181,518.681331 C164.666181,518.231174 165.069183,517.866422 165.566545,517.866422 C166.061942,517.866422 166.466909,518.231174 166.466909,518.681331 L166.466909,521.600237 C166.466909,521.933851 166.766212,522.203412 167.132845,522.203412 C167.501444,522.203412 167.799272,521.932517 167.799272,521.600237 L167.799272,519.348561 C167.799272,518.898403 168.202273,518.533651 168.699636,518.533651 C169.195033,518.533651 169.6,518.898403 169.6,519.348561 L169.6,524.35278 L169.598034,524.35278 Z M153.759707,518.331716 L153.117253,518.918127 L153.117253,511.608879 C153.117253,511.271861 152.817442,511 152.450185,511 C152.080958,511 151.782624,511.273659 151.782624,511.608879 L151.782624,518.918127 L151.140663,518.331716 C150.878758,518.093107 150.45784,518.093107 150.196428,518.331716 C149.934524,518.570324 149.934524,518.954974 150.196428,519.193583 L151.979052,520.820706 C152.109512,520.940235 152.278864,521 152.450185,521 C152.621013,521 152.792334,520.940235 152.921317,520.820706 L154.703941,519.193583 C154.965353,518.954974 154.965353,518.570324 154.703941,518.331716 C154.442529,518.093107 154.01915,518.093107 153.759707,518.331716 L153.759707,518.331716 Z" id="scroll"></path>
        </g>
    </g>
</svg>